<svg width="50" height="50" viewBox="0 0 50 50" fill="none" xmlns="http://www.w3.org/2000/svg">
<path d="M43.91 34.655C42.8775 36.945 42.38 37.9675 41.05 39.9925C39.195 42.8175 36.575 46.3375 33.3325 46.3675C30.4525 46.3925 29.7125 44.4925 25.8 44.515C21.89 44.535 21.075 46.4025 18.1925 46.375C14.95 46.345 12.4675 43.1675 10.61 40.34C5.41753 32.44 4.87503 23.165 8.07753 18.2325C10.3525 14.73 13.945 12.68 17.32 12.68C20.7575 12.68 22.92 14.565 25.76 14.565C28.5175 14.565 30.1975 12.675 34.1725 12.675C37.1725 12.675 40.3575 14.3125 42.625 17.1375C35.195 21.21 36.4 31.82 43.91 34.655ZM31.1575 9.52C32.6 7.665 33.6975 5.05 33.3 2.375C30.94 2.5375 28.1825 4.0375 26.57 5.995C25.11 7.77 23.9025 10.4025 24.37 12.9625C26.945 13.04 29.61 11.5025 31.1575 9.52Z" fill="white"/>
</svg>
