<svg width="253" height="147" viewBox="0 0 253 147" fill="none" xmlns="http://www.w3.org/2000/svg">
<g filter="url(#filter0_d_1425_9184)">
<rect x="28.1667" y="13" width="214" height="80" rx="40" transform="rotate(10.9286 28.1667 13)" fill="#49CD73" shape-rendering="crispEdges"/>
<rect x="28.5629" y="13.5857" width="213" height="79" rx="39.5" transform="rotate(10.9286 28.5629 13.5857)" stroke="#888888" shape-rendering="crispEdges"/>
<g clip-path="url(#clip0_1425_9184)">
<path fill-rule="evenodd" clip-rule="evenodd" d="M99.1324 67.4414C96.5148 80.998 83.4028 89.866 69.8462 87.2484C56.2894 84.6307 47.4216 71.5187 50.0392 57.9621C52.6568 44.4054 65.7687 35.5375 79.3254 38.1552C92.882 40.7728 101.75 53.8847 99.1324 67.4414ZM85.9151 57.1735C86.4952 58.0313 86.2701 59.197 85.4124 59.777L70.7693 69.6805C69.9115 70.2607 68.746 70.0356 68.1658 69.1778L64.2044 63.3206C63.6242 62.4628 63.8493 61.2973 64.7071 60.7172C65.5648 60.137 66.7305 60.3621 67.3106 61.2199L70.2216 65.5238L76.7665 61.0974L83.3117 56.6709C84.1694 56.0907 85.3349 56.3158 85.9151 57.1735Z" fill="#1C274C"/>
</g>
<path d="M116.662 79.0715L117.053 77.0449L121.86 77.9732C122.787 78.1521 123.552 78.0309 124.155 77.6096C124.776 77.1755 125.172 76.5186 125.342 75.6389C125.515 74.7434 125.398 73.9958 124.993 73.396C124.59 72.7805 123.917 72.3818 122.975 72.1998L118.168 71.2716L118.459 69.7634L122.936 70.6279C124.036 70.8403 124.976 71.1604 125.757 71.5882C126.554 72.0191 127.127 72.5942 127.477 73.3136C127.846 74.0203 127.927 74.9078 127.721 75.9761L127.657 76.306C127.463 77.3114 127.094 78.1282 126.549 78.7562C126.007 79.3686 125.283 79.7829 124.378 79.9992C123.475 80.1997 122.396 80.1787 121.139 79.936L116.662 79.0715ZM114.823 78.7166L118.181 61.3258L120.491 61.7717L117.133 79.1625L114.823 78.7166ZM118.249 70.8474L118.541 69.3393L122.712 70.1446C123.686 70.3327 124.45 70.2115 125.006 69.781C125.581 69.3379 125.947 68.7079 126.104 67.891C126.265 67.0584 126.16 66.3373 125.789 65.7279C125.436 65.1058 124.773 64.7007 123.799 64.5127L119.628 63.7073L120.019 61.6807L123.79 62.4087C125.675 62.7727 127.004 63.4448 127.776 64.425C128.551 65.3895 128.795 66.6179 128.506 68.1103L128.443 68.4402C128.239 69.4928 127.842 70.2878 127.249 70.8252C126.659 71.3469 125.915 71.6593 125.015 71.7626C124.133 71.8532 123.135 71.7908 122.02 71.5754L118.249 70.8474ZM136.151 83.177C135.052 82.9646 134.122 82.5896 133.362 82.0518C132.602 81.5139 131.991 80.8826 131.528 80.1577C131.084 79.4201 130.787 78.6376 130.637 77.8102C130.503 76.9858 130.513 76.173 130.668 75.3718L130.75 74.9476C130.904 74.1464 131.205 73.3897 131.652 72.6776C132.102 71.9497 132.677 71.3356 133.377 70.8351C134.079 70.319 134.882 69.9606 135.784 69.7601C136.69 69.5438 137.677 69.5388 138.745 69.7451C139.813 69.9513 140.727 70.3234 141.487 70.8612C142.25 71.3833 142.861 72.0146 143.321 72.7552C143.784 73.4802 144.089 74.2642 144.236 75.1073C144.386 75.9347 144.383 76.749 144.229 77.5502L144.147 77.9744C143.992 78.7756 143.691 79.5323 143.244 80.2444C142.813 80.9596 142.246 81.5753 141.543 82.0914C140.859 82.5949 140.064 82.9548 139.159 83.1711C138.254 83.3873 137.251 83.3893 136.151 83.177ZM136.543 81.1504C137.485 81.3324 138.326 81.2829 139.065 81.0018C139.822 80.7081 140.442 80.2411 140.924 79.6009C141.422 78.9637 141.756 78.2053 141.925 77.3255C142.098 76.4301 142.072 75.594 141.848 74.8173C141.623 74.0406 141.212 73.3828 140.615 72.8439C140.034 72.308 139.28 71.9506 138.354 71.7716C137.442 71.5957 136.61 71.6467 135.855 71.9248C135.101 72.2028 134.475 72.6604 133.977 73.2975C133.479 73.9347 133.144 74.701 132.971 75.5965C132.801 76.4763 132.821 77.303 133.03 78.0766C133.255 78.8534 133.656 79.5175 134.234 80.0691C134.83 80.6079 135.6 80.9684 136.543 81.1504ZM152.076 86.2518C150.976 86.0395 150.047 85.6644 149.287 85.1266C148.527 84.5888 147.916 83.9574 147.453 83.2325C147.008 82.4949 146.711 81.7124 146.561 80.885C146.427 80.0606 146.438 79.2478 146.592 78.4466L146.674 78.0224C146.829 77.2212 147.13 76.4646 147.577 75.7524C148.027 75.0246 148.602 74.4104 149.302 73.91C150.004 73.3938 150.807 73.0354 151.709 72.8349C152.614 72.6186 153.601 72.6136 154.67 72.8199C155.738 73.0262 156.652 73.3982 157.412 73.936C158.175 74.4581 158.786 75.0895 159.246 75.8301C159.709 76.555 160.014 77.339 160.16 78.1821C160.31 79.0096 160.308 79.8239 160.153 80.6251L160.071 81.0492C159.917 81.8504 159.616 82.6071 159.169 83.3193C158.737 84.0344 158.17 84.6501 157.468 85.1663C156.784 85.6698 155.989 86.0296 155.084 86.2459C154.178 86.4622 153.176 86.4641 152.076 86.2518ZM152.467 84.2252C153.41 84.4072 154.251 84.3577 154.989 84.0766C155.747 83.7829 156.366 83.3159 156.849 82.6757C157.346 82.0386 157.68 81.2801 157.85 80.4004C158.023 79.5049 157.997 78.6688 157.772 77.8921C157.547 77.1154 157.137 76.4576 156.54 75.9187C155.959 75.3828 155.205 75.0254 154.278 74.8465C153.367 74.6705 152.534 74.7216 151.78 74.9996C151.025 75.2776 150.399 75.7352 149.902 76.3724C149.404 77.0096 149.068 77.7759 148.895 78.6713C148.726 79.5511 148.745 80.3778 148.954 81.1515C149.179 81.9282 149.581 82.5923 150.158 83.1439C150.755 83.6828 151.525 84.0432 152.467 84.2252ZM170.957 89.4576L167.354 82.6754L165.28 82.275L172.35 76.6738L174.73 77.1333L168.33 82.1794L168.727 81.0094L173.573 89.9626L170.957 89.4576ZM162.286 87.7832L165.607 70.5809L167.869 71.0177L164.548 88.22L162.286 87.7832ZM180.785 91.7951C179.685 91.5828 178.771 91.2108 178.043 90.679C177.314 90.1473 176.758 89.5265 176.374 88.8168C175.992 88.0913 175.75 87.3194 175.648 86.5011C175.561 85.6858 175.594 84.8776 175.749 84.0764L175.831 83.6522C175.989 82.8353 176.26 82.0647 176.644 81.3404C177.044 80.6192 177.554 80.0008 178.175 79.4852C178.8 78.9538 179.531 78.5818 180.371 78.3691C181.229 78.1438 182.185 78.1327 183.237 78.3359C184.604 78.5998 185.67 79.1152 186.434 79.882C187.217 80.6362 187.731 81.5177 187.977 82.5265C188.238 83.5383 188.266 84.5705 188.063 85.623L187.868 86.6363L176.698 84.4796L177.025 82.7829L186.546 84.6211L185.85 85.4401C186.023 84.5446 186.03 83.7475 185.871 83.0488C185.716 82.3344 185.39 81.7419 184.895 81.2714C184.399 80.8009 183.719 80.4822 182.855 80.3154C181.96 80.1425 181.174 80.2026 180.498 80.4958C179.838 80.792 179.29 81.2648 178.855 81.9141C178.436 82.5664 178.137 83.356 177.958 84.2829C177.785 85.1784 177.77 86.0147 177.913 86.792C178.075 87.5566 178.422 88.2101 178.953 88.7526C179.486 89.2793 180.225 89.6337 181.167 89.8157C182.157 90.0068 183.001 89.9416 183.698 89.62C184.412 89.3014 184.887 88.8637 185.125 88.3067L187.246 88.7162C186.906 89.5469 186.417 90.2263 185.777 90.7546C185.137 91.2829 184.393 91.6362 183.543 91.8144C182.694 91.9927 181.775 91.9862 180.785 91.7951ZM195.12 94.5629C194.224 94.39 193.431 94.0658 192.741 93.5903C192.05 93.1148 191.48 92.524 191.03 91.8178C190.595 91.1147 190.297 90.34 190.134 89.4939C189.987 88.6507 190.002 87.7736 190.178 86.8624L190.26 86.4383C190.433 85.5428 190.744 84.7311 191.194 84.0033C191.644 83.2754 192.194 82.6646 192.844 82.1707C193.509 81.6799 194.242 81.3409 195.044 81.1535C195.865 80.9535 196.731 80.9415 197.642 81.1174C198.601 81.3024 199.433 81.675 200.14 82.2351C200.849 82.7795 201.374 83.5245 201.713 84.4698C202.052 85.4152 202.122 86.5695 201.924 87.9327L201.273 86.2426L202.906 77.7828L205.168 78.2196L201.847 95.4219L200.056 95.0761L201.134 89.4912L201.794 89.6186C201.455 91.0361 200.932 92.141 200.225 92.9333C199.521 93.7099 198.721 94.2236 197.825 94.4743C196.948 94.7124 196.046 94.7419 195.12 94.5629ZM195.808 92.6427C196.578 92.7913 197.31 92.7535 198.005 92.5292C198.701 92.3049 199.299 91.9071 199.8 91.3358C200.305 90.7488 200.642 90.0154 200.812 89.1357L201.021 88.0517C201.188 87.1876 201.133 86.4192 200.855 85.7464C200.596 85.0609 200.175 84.4989 199.592 84.0603C199.027 83.6091 198.368 83.3107 197.614 83.1651C196.781 83.0043 196.005 83.0581 195.285 83.3265C194.581 83.5979 193.98 84.0522 193.482 84.6894C193 85.3296 192.666 86.1288 192.481 87.0871C192.296 88.0454 192.314 88.9208 192.536 89.7132C192.761 90.4899 193.158 91.1368 193.726 91.654C194.297 92.1554 194.991 92.4849 195.808 92.6427Z" fill="#242834"/>
</g>
<defs>
<filter id="filter0_d_1425_9184" x="-6" y="-6" width="265.286" height="159.12" filterUnits="userSpaceOnUse" color-interpolation-filters="sRGB">
<feFlood flood-opacity="0" result="BackgroundImageFix"/>
<feColorMatrix in="SourceAlpha" type="matrix" values="0 0 0 0 0 0 0 0 0 0 0 0 0 0 0 0 0 0 127 0" result="hardAlpha"/>
<feOffset dx="1" dy="1"/>
<feGaussianBlur stdDeviation="10"/>
<feComposite in2="hardAlpha" operator="out"/>
<feColorMatrix type="matrix" values="0 0 0 0 0.490196 0 0 0 0 0.0627451 0 0 0 0 0.717647 0 0 0 0.15 0"/>
<feBlend mode="normal" in2="BackgroundImageFix" result="effect1_dropShadow_1425_9184"/>
<feBlend mode="normal" in="SourceGraphic" in2="effect1_dropShadow_1425_9184" result="shape"/>
</filter>
<clipPath id="clip0_1425_9184">
<rect width="60" height="60" fill="white" transform="translate(50.8174 27.5582) rotate(10.9286)"/>
</clipPath>
</defs>
</svg>
