<svg width="59" height="59" viewBox="0 0 59 59" fill="none" xmlns="http://www.w3.org/2000/svg">
<path fill-rule="evenodd" clip-rule="evenodd" d="M54.1324 34.4414C51.5148 47.998 38.4028 56.866 24.8462 54.2484C11.2894 51.6307 2.42158 38.5187 5.03918 24.9621C7.65681 11.4054 20.7687 2.53753 34.3254 5.15516C47.882 7.77276 56.75 20.8847 54.1324 34.4414ZM40.9151 24.1735C41.4952 25.0313 41.2701 26.197 40.4124 26.777L25.7693 36.6805C24.9115 37.2607 23.746 37.0356 23.1658 36.1778L19.2044 30.3206C18.6242 29.4628 18.8493 28.2973 19.7071 27.7172C20.5648 27.137 21.7305 27.3621 22.3106 28.2199L25.2216 32.5238L31.7665 28.0974L38.3117 23.6709C39.1694 23.0907 40.3349 23.3158 40.9151 24.1735Z" fill="#1C274C"/>
</svg>
