<svg width="14" height="22" viewBox="0 0 14 22" fill="none" xmlns="http://www.w3.org/2000/svg">
<path d="M1.09256 2.99922L1.50751 3.9637C1.50751 3.9637 2.41247 8.0629 5.23636 13.6549C8.06026 19.2469 8.89703 20.4837 8.89703 20.4837C8.89703 20.4837 10.1981 20.8903 10.7434 20.1094C11.2888 19.3285 11.3778 18.8523 11.2206 18.1936C11.0632 17.5349 7.03609 4.26802 6.52806 3.47777L6.11782 3.20778C6.11782 3.20778 5.73451 2.71028 5.97791 2.32464C6.00259 2.28558 6.00596 2.23674 5.98772 2.19436L5.80333 1.76577C5.79493 1.74625 5.78003 1.7305 5.76101 1.7212L5.22428 1.45651C5.16753 1.42848 5.10175 1.42465 5.04227 1.44606L1.16363 2.83594C1.09728 2.85968 1.06472 2.9345 1.09256 2.99922Z" fill="#1D1A3A"/>
<path d="M5.90024 2.55628C5.89822 2.57734 5.89727 2.5983 5.89743 2.61928C5.89732 2.59841 5.89822 2.57734 5.90024 2.55628Z" fill="#1D1A3A"/>
<path d="M5.93493 2.41529C5.92882 2.43085 5.92341 2.4466 5.91896 2.46256C5.92356 2.44666 5.92886 2.43095 5.93493 2.41529Z" fill="#1D1A3A"/>
<path d="M5.92018 2.79332C5.91635 2.77806 5.9134 2.76255 5.91046 2.74703C5.91345 2.76265 5.91645 2.77802 5.92018 2.79332Z" fill="#A4D8E4"/>
<path d="M5.90122 2.68563C5.90275 2.69989 5.90466 2.71386 5.90678 2.72774C5.90477 2.71381 5.90275 2.69989 5.90122 2.68563Z" fill="#A4D8E4"/>
<path d="M5.9349 2.41445C5.93773 2.40714 5.94031 2.39957 5.94364 2.39229C5.94046 2.39963 5.93779 2.40699 5.9349 2.41445Z" fill="#A4D8E4"/>
<path d="M5.90024 2.55628C5.89822 2.57734 5.89727 2.5983 5.89743 2.61928C5.89732 2.59841 5.89822 2.57734 5.90024 2.55628Z" fill="#1D1A3A"/>
<path d="M5.93493 2.41529C5.92882 2.43085 5.92341 2.4466 5.91896 2.46256C5.92356 2.44666 5.92886 2.43095 5.93493 2.41529Z" fill="#1D1A3A"/>
<path d="M5.9349 2.41445C5.93773 2.40714 5.94031 2.39957 5.94364 2.39229C5.94046 2.39963 5.93779 2.40699 5.9349 2.41445Z" fill="#1D1A3A"/>
<path d="M5.90122 2.68563C5.90275 2.69989 5.90466 2.71386 5.90678 2.72774C5.90477 2.71381 5.90275 2.69989 5.90122 2.68563Z" fill="#1D1A3A"/>
<path d="M5.92018 2.79332C5.91635 2.77806 5.9134 2.76255 5.91046 2.74703C5.91345 2.76265 5.91645 2.77802 5.92018 2.79332Z" fill="#1D1A3A"/>
<path d="M6.09375 3.17285C6.09459 3.17423 6.09549 3.17546 6.09649 3.1769C6.09558 3.17567 6.09449 3.17428 6.09375 3.17285Z" fill="#1D1A3A"/>
<path d="M5.94429 2.87554C5.94499 2.87747 5.94558 2.87945 5.94632 2.88149C5.94558 2.87945 5.94488 2.87752 5.94429 2.87554Z" fill="#1D1A3A"/>
<path d="M6.10791 3.19434C6.10967 3.19669 6.11137 3.19919 6.11264 3.201C6.11141 3.19929 6.10952 3.19663 6.10791 3.19434Z" fill="#1D1A3A"/>
<path d="M6.11621 3.2041C6.11771 3.20602 6.1187 3.20736 6.1187 3.20736C6.1187 3.20736 6.11709 3.20521 6.11621 3.2041Z" fill="#1D1A3A"/>
<path d="M6.09368 3.17494C6.05812 3.12204 5.99142 3.01335 5.94587 2.8803C5.99173 3.01408 6.05824 3.1226 6.09368 3.17494Z" fill="#1D1A3A"/>
<path d="M5.92031 2.79345C5.92704 2.8217 5.9351 2.84901 5.94416 2.87551C5.9352 2.84896 5.927 2.82159 5.92031 2.79345Z" fill="#1D1A3A"/>
<path d="M6.09668 3.17676C6.10131 3.18347 6.10488 3.18889 6.10816 3.19333C6.10494 3.18874 6.10131 3.18347 6.09668 3.17676Z" fill="#1D1A3A"/>
<path d="M6.1123 3.2019C6.11421 3.2045 6.11495 3.20562 6.11586 3.2068C6.1149 3.20551 6.11381 3.20388 6.1123 3.2019Z" fill="#1D1A3A"/>
<path d="M5.38887 2.75745L4.67904 3.077C4.67676 3.07799 5.04196 4.07507 5.09381 4.28542C4.53277 4.21831 2.52818 4.88759 2.15703 5.09331C2.15553 5.08583 1.70759 3.88614 1.70759 3.88614L1.50767 3.96539C1.50767 3.96539 2.41263 8.06459 5.23652 13.6566C8.06042 19.2486 8.89719 20.4853 8.89719 20.4853C8.89719 20.4853 10.1983 20.8919 10.7436 20.1111C11.2889 19.3302 11.378 18.854 11.2208 18.1953C11.0633 17.5366 7.03625 4.26971 6.52822 3.47946L6.11798 3.20947C6.11798 3.20947 5.97603 3.02433 5.92004 2.79261L5.38887 2.75745Z" fill="#1D1A3A"/>
<path d="M5.72601 4.71504C5.45955 4.70572 5.20737 4.72817 4.94367 4.76247C3.91749 4.89608 2.84358 5.10476 1.99284 5.71969C2.52073 7.43254 3.52688 10.2705 5.2365 13.6559C6.35711 15.8749 7.16452 17.4077 7.73107 18.4498C7.73107 18.4498 7.78682 18.4776 7.81767 18.4943C8.29815 18.7567 8.95456 18.5393 9.41946 18.3346C9.98327 18.0863 10.3261 17.6482 10.3765 17.0492C10.3782 17.0302 10.3756 17.0108 10.3698 16.9927L6.44861 4.9399C6.38317 4.69625 5.82752 4.71864 5.72601 4.71504Z" fill="white"/>
<path d="M9.28211 18.3094C8.62697 18.5913 8.16769 18.579 7.80269 18.4339C7.76623 18.4196 7.69579 18.3823 7.69579 18.3823C7.01522 17.1283 6.18766 15.537 5.23505 13.651C3.56278 10.3395 2.56155 7.5516 2.01272 5.78006C2.2258 5.63126 2.46497 5.49931 2.72476 5.38754C3.42301 5.08713 4.20769 4.95672 4.88321 4.86872C5.10424 4.83998 5.36855 4.81195 5.6529 4.82194C5.66337 4.82224 5.67831 4.82234 5.69684 4.82249C6.16217 4.82565 6.28377 4.91515 6.30376 4.98965L10.2125 17.0043C10.2244 17.0407 10.2293 17.0793 10.225 17.1174C10.1653 17.6525 9.85293 18.0582 9.31807 18.2937L9.28211 18.3094Z" fill="#423F5A"/>
<path d="M2.1575 5.09304C2.52856 4.88736 4.53314 4.21808 5.09429 4.28515C5.04234 4.07483 4.67713 3.07775 4.67952 3.07673L5.38935 2.75718L5.92053 2.79209C5.91685 2.77693 5.91382 2.76161 5.91091 2.74625C5.90971 2.73975 5.90866 2.7333 5.90757 2.72676C5.90543 2.71291 5.90343 2.69911 5.90206 2.68506C5.90108 2.67563 5.90067 2.66608 5.90005 2.65662C5.89933 2.64437 5.89831 2.63226 5.89815 2.61989C5.89799 2.59891 5.89894 2.57794 5.90096 2.55689C5.90174 2.54867 5.90337 2.54046 5.90451 2.53222C5.90659 2.51704 5.90929 2.50185 5.9127 2.48659C5.91456 2.47804 5.91696 2.46962 5.91927 2.46124C5.92367 2.44543 5.92902 2.42984 5.93508 2.41443C5.93783 2.40709 5.94043 2.39969 5.94373 2.39249C5.95363 2.37001 5.96495 2.34766 5.97877 2.32571C6.00345 2.28665 6.00681 2.23781 5.98858 2.19543L5.80428 1.76705C5.79588 1.74752 5.78098 1.73178 5.76196 1.72248L5.22522 1.45779C5.16848 1.42976 5.1027 1.42593 5.04322 1.44734L1.16427 2.83735C1.09791 2.86109 1.06535 2.93592 1.09319 3.00063L1.50814 3.96511L1.70807 3.88587C1.70807 3.88587 2.15596 5.08545 2.1575 5.09304Z" fill="#423F5A"/>
<path d="M1.77432 3.03121C1.77432 3.03121 2.06908 3.61876 2.1263 4.12631C2.18367 4.63392 2.38554 4.98925 2.38554 4.98925L2.53544 4.92993C2.53544 4.92993 2.23391 4.3112 2.27496 4.09731C2.316 3.88368 1.89242 2.9804 1.89242 2.9804L1.70195 2.68418L1.77432 3.03121Z" fill="#1D1A3A"/>
<path d="M2.05981 2.91566C2.05981 2.91566 2.35904 3.51359 2.41981 4.0291C2.48043 4.54454 2.68526 4.90648 2.68526 4.90648L2.8352 4.84726C2.8352 4.84726 2.52885 4.21731 2.56874 4.00072C2.60844 3.78397 2.17807 2.86491 2.17807 2.86491L1.98518 2.56307L2.05981 2.91566Z" fill="#1D1A3A"/>
<path d="M2.34208 2.79455C2.34208 2.79455 2.64131 3.39248 2.70208 3.90799C2.7628 4.42339 2.96743 4.78541 2.96743 4.78541L3.11737 4.72619C3.11737 4.72619 2.81101 4.09624 2.85091 3.87965C2.89071 3.66286 2.46034 2.74379 2.46034 2.74379L2.26745 2.44196L2.34208 2.79455Z" fill="#1D1A3A"/>
<path d="M2.64073 2.70874C2.64073 2.70874 2.94326 3.31436 3.00644 3.83548C3.06956 4.35674 3.27626 4.72329 3.27626 4.72329L3.42625 4.66418C3.42625 4.66418 3.1165 4.02633 3.15535 3.80761C3.1943 3.58884 2.75888 2.65803 2.75888 2.65803L2.56425 2.35215L2.64073 2.70874Z" fill="#1D1A3A"/>
<path d="M2.93604 2.61607C2.93604 2.61607 3.23473 3.21276 3.29496 3.72702C3.35509 4.24132 3.55946 4.60247 3.55946 4.60247L3.70936 4.54315C3.70936 4.54315 3.40367 3.91476 3.44374 3.69859C3.48377 3.48231 3.05414 2.56526 3.05414 2.56526L2.86161 2.26426L2.93604 2.61607Z" fill="#1D1A3A"/>
<path d="M3.22161 2.50138C3.22161 2.50138 3.52562 3.11043 3.58987 3.63404C3.65402 4.15769 3.86166 4.52642 3.86166 4.52642L4.01165 4.46731C4.01165 4.46731 3.70033 3.82583 3.73888 3.60612C3.77737 3.38657 3.33972 2.45057 3.33972 2.45057L3.14433 2.14292L3.22161 2.50138Z" fill="#1D1A3A"/>
<path d="M3.50677 2.3843C3.50677 2.3843 3.81561 3.00457 3.88353 3.53669C3.9514 4.06871 4.16207 4.44451 4.16207 4.44451L4.31211 4.3855C4.31211 4.3855 3.99565 3.73207 4.0328 3.5094C4.07006 3.28668 3.62493 2.33359 3.62493 2.33359L3.42695 2.01992L3.50677 2.3843Z" fill="#1D1A3A"/>
<path d="M3.81249 2.31719C3.81249 2.31719 4.12226 2.93964 4.19076 3.47311C4.2593 4.00669 4.47051 4.38373 4.47051 4.38373L4.62055 4.32472C4.62055 4.32472 4.3032 3.66922 4.34018 3.44588C4.37717 3.22254 3.93065 2.26623 3.93065 2.26623L3.73223 1.95151L3.81249 2.31719Z" fill="#1D1A3A"/>
<path d="M4.10007 2.20807C4.10007 2.20807 4.41953 2.85331 4.49536 3.40382C4.57123 3.95443 4.78837 4.34554 4.78837 4.34554L4.93859 4.2867C4.93859 4.2867 4.61097 3.6073 4.64517 3.37777C4.67943 3.1481 4.21818 2.15725 4.21818 2.15725L4.01452 1.83039L4.10007 2.20807Z" fill="#1D1A3A"/>
<path d="M5.2048 4.44778C5.18527 4.45618 5.16402 4.45917 5.1431 4.4566C4.65998 4.39892 2.95286 4.93099 2.28297 5.2192C2.21587 5.24807 2.16474 5.27228 2.13094 5.29101L2.12009 5.29642C2.08893 5.30982 2.0534 5.30935 2.02255 5.29517C1.9923 5.28123 1.969 5.25481 1.95863 5.22271C1.94716 5.18974 1.7245 4.59209 1.53133 4.07471L1.43491 4.11299C1.37422 4.13701 1.30655 4.10876 1.2808 4.04893L0.844986 3.03594C0.791001 2.91046 0.849179 2.76442 0.97466 2.71043L0.988298 2.70494L5.06316 1.24467C5.15588 1.21155 5.25949 1.21745 5.3477 1.26111L5.91139 1.53895C5.9568 1.56151 5.99286 1.59955 6.01283 1.64598L6.20643 2.09597C6.24134 2.17709 6.23419 2.26979 6.18743 2.34394C6.17734 2.35998 6.1683 2.37729 6.15891 2.39868L6.15212 2.41638C6.14685 2.4296 6.14264 2.44212 6.13918 2.45469C6.1372 2.46182 6.13518 2.46885 6.13357 2.47569C6.13065 2.48864 6.12862 2.50109 6.12682 2.5138L6.12333 2.5366C6.12199 2.55207 6.1212 2.57026 6.12122 2.58835C6.12138 2.5953 6.12187 2.60272 6.12256 2.61006L6.12324 2.62023C6.12376 2.63145 6.12404 2.6381 6.12484 2.64453C6.12615 2.65788 6.12807 2.67035 6.12988 2.68286L6.13289 2.70016C6.13549 2.71393 6.13812 2.72806 6.14148 2.74188C6.1504 2.77892 6.1411 2.81825 6.1167 2.84709C6.0923 2.87593 6.05461 2.8919 6.01722 2.88939L5.48917 2.85462L4.87091 3.13292L4.89544 3.2014C5.0128 3.52883 5.23118 4.13828 5.27342 4.30944C5.28288 4.34772 5.27287 4.38797 5.24686 4.41737C5.23558 4.43035 5.22121 4.44072 5.2048 4.44778ZM2.25239 5.1484C2.92872 4.85742 4.65736 4.32102 5.15251 4.38004C5.16614 4.38169 5.18009 4.37606 5.18933 4.36605C5.19864 4.35564 5.20205 4.34125 5.19878 4.32764C5.15747 4.16039 4.93997 3.55327 4.82305 3.22713L4.77456 3.09153L5.47538 2.77622L6.02266 2.81221C6.03613 2.81318 6.04922 2.80755 6.05817 2.79717C6.06661 2.78702 6.06994 2.77303 6.06679 2.75998C6.06315 2.74493 6.06019 2.72946 6.05724 2.71374L6.05405 2.69517C6.05179 2.68076 6.0499 2.66692 6.04844 2.65266C6.0476 2.64526 6.04713 2.63759 6.0465 2.62468L6.04592 2.61533C6.04524 2.60688 6.04461 2.59768 6.0445 2.58886C6.04428 2.56803 6.04537 2.54737 6.04728 2.52722L6.05083 2.50255C6.05293 2.48798 6.05536 2.47303 6.05878 2.45838C6.06041 2.45042 6.0627 2.4423 6.06522 2.43358C6.06949 2.41832 6.07461 2.40332 6.08053 2.38846L6.08051 2.38871L6.08824 2.36889C6.10012 2.34187 6.11087 2.32136 6.12284 2.30255C6.156 2.25 6.16096 2.18398 6.13611 2.12622L5.94251 1.67624C5.92973 1.64653 5.90676 1.62231 5.87769 1.60798L5.31401 1.33014C5.24456 1.29576 5.16271 1.29121 5.08959 1.31726L1.00554 2.78135C0.91922 2.81849 0.879151 2.91907 0.916289 3.00539L1.35215 4.01848C1.36131 4.03977 1.38545 4.04982 1.40691 4.04133L1.57658 3.97387L1.59037 4.01078C1.6614 4.20107 2.0164 5.15268 2.03237 5.19838C2.03632 5.21071 2.04454 5.2201 2.0553 5.22507C2.06625 5.23021 2.07886 5.23032 2.08997 5.22554C2.12947 5.20375 2.183 5.17825 2.25239 5.1484Z" fill="#1D1A3A"/>
<path d="M8.47842 15.5727C8.37849 15.4738 8.24832 15.5203 8.12749 15.5559C8.04329 15.5808 7.95911 15.6055 7.87495 15.6305C7.66797 15.6916 7.46107 15.7529 7.25429 15.8148C7.15822 15.8435 7.03591 15.8608 6.94726 15.9094C6.88454 15.9439 6.85705 16.0108 6.85993 16.0779C6.85485 16.1107 7.05907 16.7347 7.27173 16.8087C7.50172 16.8886 8.49592 16.7024 8.695 16.5568C8.84824 16.4446 8.77259 16.1944 8.72129 16.0494C8.66515 15.8909 8.60267 15.7104 8.48821 15.5832C8.48502 15.5795 8.48174 15.5758 8.47842 15.5727Z" fill="#EB5E69"/>
<path d="M8.57582 16.5343C8.25724 16.6714 7.46838 16.7961 7.29699 16.7365C7.14601 16.684 6.95265 16.169 6.93698 16.0768C6.93701 16.0763 6.93697 16.0759 6.93696 16.0753C6.93593 16.0543 6.93885 16.0027 6.98429 15.9779C6.99343 15.9731 7.00281 15.9686 7.01247 15.9644C7.06067 15.9437 7.11964 15.9294 7.17671 15.9156C7.21139 15.9072 7.24524 15.8989 7.27647 15.8896C7.4831 15.8277 7.68994 15.7665 7.89682 15.7055L8.16967 15.6249C8.28903 15.5893 8.36514 15.5702 8.4241 15.6285L8.43098 15.6357C8.53312 15.7492 8.59287 15.9181 8.64559 16.0673L8.64865 16.0758C8.69933 16.2191 8.75455 16.4184 8.64958 16.4954C8.63844 16.5033 8.61685 16.5166 8.57582 16.5343Z" fill="#E84B58"/>
<path d="M7.95028 16.5967C7.91891 16.6102 7.88508 16.6197 7.84916 16.6243C7.75637 16.6364 7.66482 16.6147 7.59117 16.5634C7.51641 16.5113 7.46912 16.4351 7.45787 16.3486C7.43491 16.1716 7.57287 16.007 7.76548 15.982C7.85826 15.9699 7.94977 15.9915 8.02357 16.0428C8.09828 16.0949 8.14572 16.1711 8.15697 16.2576C8.17553 16.4018 8.0876 16.5376 7.95028 16.5967ZM7.69345 16.0781C7.58615 16.1243 7.51719 16.2287 7.53161 16.3392C7.54006 16.4046 7.57635 16.4626 7.63382 16.5026C7.69217 16.5432 7.76525 16.5603 7.83961 16.5506C7.99124 16.5308 8.10085 16.4039 8.08311 16.2673C8.07455 16.202 8.03827 16.1439 7.9809 16.1039C7.92255 16.0632 7.84943 16.0461 7.77507 16.0558C7.74618 16.0596 7.71879 16.0672 7.69345 16.0781Z" fill="#EB5E69"/>
<path d="M7.60962 15.9085C7.6479 16.0181 7.68628 16.1279 7.72457 16.2373C7.74087 16.2843 7.81115 16.2522 7.79484 16.2054C7.7566 16.0959 7.71827 15.9863 7.67998 15.8767C7.66368 15.8299 7.5934 15.862 7.60962 15.9085Z" fill="#EB5E69"/>
</svg>
