<svg width="382" height="104" viewBox="0 0 382 104" fill="none" xmlns="http://www.w3.org/2000/svg">
<rect width="382" height="104" rx="52" fill="black"/>
<path d="M128.91 61.655C127.878 63.945 127.38 64.9675 126.05 66.9925C124.195 69.8175 121.575 73.3375 118.333 73.3675C115.453 73.3925 114.713 71.4925 110.8 71.515C106.89 71.535 106.075 73.4025 103.193 73.375C99.95 73.345 97.4675 70.1675 95.61 67.34C90.4175 59.44 89.875 50.165 93.0775 45.2325C95.3525 41.73 98.945 39.68 102.32 39.68C105.758 39.68 107.92 41.565 110.76 41.565C113.518 41.565 115.198 39.675 119.173 39.675C122.173 39.675 125.358 41.3125 127.625 44.1375C120.195 48.21 121.4 58.82 128.91 61.655ZM116.158 36.52C117.6 34.665 118.698 32.05 118.3 29.375C115.94 29.5375 113.183 31.0375 111.57 32.995C110.11 34.77 108.903 37.4025 109.37 39.9625C111.945 40.04 114.61 38.5025 116.158 36.52Z" fill="white"/>
<path d="M174.944 40.564V39.124H177.856C178.56 39.124 179.184 39.012 179.728 38.788C180.283 38.5533 180.752 38.2333 181.136 37.828C181.531 37.4227 181.829 36.948 182.032 36.404C182.235 35.86 182.336 35.2733 182.336 34.644C182.336 33.9827 182.235 33.3853 182.032 32.852C181.829 32.308 181.531 31.8387 181.136 31.444C180.752 31.0387 180.283 30.7293 179.728 30.516C179.184 30.3027 178.56 30.196 177.856 30.196H174.944V28.756H177.696C178.752 28.756 179.669 28.9213 180.448 29.252C181.227 29.572 181.872 30.0093 182.384 30.564C182.907 31.108 183.296 31.7213 183.552 32.404C183.808 33.076 183.936 33.764 183.936 34.468V34.82C183.936 35.5027 183.808 36.1853 183.552 36.868C183.296 37.5507 182.907 38.1693 182.384 38.724C181.872 39.2787 181.227 39.7267 180.448 40.068C179.669 40.3987 178.752 40.564 177.696 40.564H174.944ZM173.696 40.564V28.756H175.264V40.564H173.696ZM190.064 40.788C189.318 40.788 188.662 40.66 188.096 40.404C187.531 40.148 187.051 39.812 186.656 39.396C186.272 38.9693 185.979 38.4947 185.776 37.972C185.584 37.4493 185.488 36.916 185.488 36.372V36.084C185.488 35.54 185.59 35.0067 185.792 34.484C185.995 33.9507 186.294 33.476 186.688 33.06C187.083 32.6333 187.563 32.2973 188.128 32.052C188.694 31.796 189.339 31.668 190.064 31.668C190.79 31.668 191.435 31.796 192 32.052C192.566 32.2973 193.046 32.6333 193.44 33.06C193.835 33.476 194.134 33.9507 194.336 34.484C194.539 35.0067 194.64 35.54 194.64 36.084V36.372C194.64 36.916 194.539 37.4493 194.336 37.972C194.144 38.4947 193.851 38.9693 193.456 39.396C193.072 39.812 192.598 40.148 192.032 40.404C191.467 40.66 190.811 40.788 190.064 40.788ZM190.064 39.412C190.704 39.412 191.248 39.2733 191.696 38.996C192.155 38.708 192.502 38.324 192.736 37.844C192.982 37.364 193.104 36.8253 193.104 36.228C193.104 35.62 192.982 35.076 192.736 34.596C192.491 34.116 192.139 33.7373 191.68 33.46C191.232 33.1827 190.694 33.044 190.064 33.044C189.446 33.044 188.907 33.1827 188.448 33.46C187.99 33.7373 187.638 34.116 187.392 34.596C187.147 35.076 187.024 35.62 187.024 36.228C187.024 36.8253 187.142 37.364 187.376 37.844C187.622 38.324 187.968 38.708 188.416 38.996C188.875 39.2733 189.424 39.412 190.064 39.412ZM199.281 40.5L201.009 32.244H203.089L205.105 40.5H203.793L201.777 32.276H202.289L200.545 40.5H199.281ZM198.497 40.5V39.284H200.273V40.5H198.497ZM198.145 40.5L195.729 31.956H197.201L199.553 40.5H198.145ZM204.113 40.5V39.284H205.889V40.5H204.113ZM204.833 40.5L206.881 31.956H208.273L206.177 40.5H204.833ZM210.347 40.5V31.956H211.563V35.62H211.371C211.371 34.7773 211.483 34.068 211.707 33.492C211.942 32.9053 212.294 32.4627 212.763 32.164C213.232 31.8547 213.824 31.7 214.539 31.7H214.603C215.68 31.7 216.475 32.036 216.987 32.708C217.51 33.38 217.771 34.3507 217.771 35.62V40.5H216.235V35.3C216.235 34.6387 216.048 34.1107 215.675 33.716C215.302 33.3107 214.79 33.108 214.139 33.108C213.467 33.108 212.923 33.316 212.507 33.732C212.091 34.148 211.883 34.7027 211.883 35.396V40.5H210.347ZM220.677 40.5V28.82H222.213V40.5H220.677ZM219.493 30.036V28.82H222.213V30.036H219.493ZM229.096 40.788C228.349 40.788 227.693 40.66 227.128 40.404C226.562 40.148 226.082 39.812 225.688 39.396C225.304 38.9693 225.01 38.4947 224.808 37.972C224.616 37.4493 224.52 36.916 224.52 36.372V36.084C224.52 35.54 224.621 35.0067 224.824 34.484C225.026 33.9507 225.325 33.476 225.72 33.06C226.114 32.6333 226.594 32.2973 227.16 32.052C227.725 31.796 228.37 31.668 229.096 31.668C229.821 31.668 230.466 31.796 231.032 32.052C231.597 32.2973 232.077 32.6333 232.472 33.06C232.866 33.476 233.165 33.9507 233.368 34.484C233.57 35.0067 233.672 35.54 233.672 36.084V36.372C233.672 36.916 233.57 37.4493 233.368 37.972C233.176 38.4947 232.882 38.9693 232.488 39.396C232.104 39.812 231.629 40.148 231.064 40.404C230.498 40.66 229.842 40.788 229.096 40.788ZM229.096 39.412C229.736 39.412 230.28 39.2733 230.728 38.996C231.186 38.708 231.533 38.324 231.767 37.844C232.013 37.364 232.135 36.8253 232.135 36.228C232.135 35.62 232.013 35.076 231.767 34.596C231.522 34.116 231.17 33.7373 230.712 33.46C230.264 33.1827 229.725 33.044 229.096 33.044C228.477 33.044 227.938 33.1827 227.48 33.46C227.021 33.7373 226.669 34.116 226.424 34.596C226.178 35.076 226.056 35.62 226.056 36.228C226.056 36.8253 226.173 37.364 226.408 37.844C226.653 38.324 227 38.708 227.448 38.996C227.906 39.2733 228.456 39.412 229.096 39.412ZM241.14 40.5V37.94H240.884V34.98C240.884 34.3933 240.729 33.9507 240.42 33.652C240.121 33.3533 239.679 33.204 239.092 33.204C238.761 33.204 238.42 33.2093 238.068 33.22C237.716 33.2307 237.38 33.2413 237.06 33.252C236.74 33.2627 236.463 33.2787 236.228 33.3V31.956C236.463 31.9347 236.708 31.9187 236.964 31.908C237.231 31.8867 237.503 31.876 237.78 31.876C238.057 31.8653 238.324 31.86 238.58 31.86C239.455 31.86 240.169 31.9667 240.724 32.18C241.279 32.3827 241.689 32.7187 241.956 33.188C242.223 33.6573 242.356 34.292 242.356 35.092V40.5H241.14ZM238.34 40.724C237.7 40.724 237.145 40.6173 236.676 40.404C236.217 40.18 235.86 39.86 235.604 39.444C235.359 39.028 235.236 38.5267 235.236 37.94C235.236 37.332 235.369 36.8253 235.636 36.42C235.913 36.0147 236.313 35.7107 236.836 35.508C237.359 35.2947 237.988 35.188 238.724 35.188H241.044V36.34H238.66C238.041 36.34 237.567 36.4893 237.236 36.788C236.905 37.0867 236.74 37.4707 236.74 37.94C236.74 38.4093 236.905 38.788 237.236 39.076C237.567 39.364 238.041 39.508 238.66 39.508C239.023 39.508 239.369 39.444 239.7 39.316C240.031 39.1773 240.303 38.9533 240.516 38.644C240.74 38.324 240.863 37.8867 240.884 37.332L241.3 37.94C241.247 38.548 241.097 39.06 240.852 39.476C240.617 39.8813 240.287 40.1907 239.86 40.404C239.444 40.6173 238.937 40.724 238.34 40.724ZM248.743 40.788C248.135 40.788 247.575 40.676 247.063 40.452C246.551 40.228 246.103 39.9133 245.719 39.508C245.346 39.1027 245.052 38.6333 244.839 38.1C244.636 37.5667 244.535 36.9907 244.535 36.372V36.084C244.535 35.476 244.636 34.9053 244.839 34.372C245.042 33.8387 245.324 33.3693 245.687 32.964C246.06 32.5587 246.498 32.244 246.999 32.02C247.511 31.7853 248.076 31.668 248.695 31.668C249.346 31.668 249.938 31.8067 250.471 32.084C251.004 32.3507 251.442 32.772 251.783 33.348C252.124 33.924 252.316 34.6707 252.359 35.588L251.719 34.564V28.82H253.255V40.5H252.039V36.708H252.487C252.444 37.6787 252.242 38.468 251.879 39.076C251.516 39.6733 251.058 40.1107 250.503 40.388C249.959 40.6547 249.372 40.788 248.743 40.788ZM248.951 39.444C249.474 39.444 249.948 39.3267 250.375 39.092C250.802 38.8573 251.143 38.5213 251.399 38.084C251.655 37.636 251.783 37.1133 251.783 36.516V35.78C251.783 35.1933 251.65 34.6973 251.383 34.292C251.127 33.876 250.78 33.5613 250.343 33.348C249.916 33.124 249.447 33.012 248.935 33.012C248.37 33.012 247.868 33.1453 247.431 33.412C247.004 33.6787 246.668 34.052 246.423 34.532C246.188 35.012 246.071 35.5773 246.071 36.228C246.071 36.8787 246.194 37.4493 246.439 37.94C246.684 38.42 247.026 38.7933 247.463 39.06C247.9 39.316 248.396 39.444 248.951 39.444ZM263.783 40.788C263.036 40.788 262.38 40.66 261.815 40.404C261.25 40.148 260.77 39.812 260.375 39.396C259.991 38.9693 259.698 38.4947 259.495 37.972C259.303 37.4493 259.207 36.916 259.207 36.372V36.084C259.207 35.54 259.308 35.0067 259.511 34.484C259.714 33.9507 260.012 33.476 260.407 33.06C260.802 32.6333 261.282 32.2973 261.847 32.052C262.412 31.796 263.058 31.668 263.783 31.668C264.508 31.668 265.154 31.796 265.719 32.052C266.284 32.2973 266.764 32.6333 267.159 33.06C267.554 33.476 267.852 33.9507 268.055 34.484C268.258 35.0067 268.359 35.54 268.359 36.084V36.372C268.359 36.916 268.258 37.4493 268.055 37.972C267.863 38.4947 267.57 38.9693 267.175 39.396C266.791 39.812 266.316 40.148 265.751 40.404C265.186 40.66 264.53 40.788 263.783 40.788ZM263.783 39.412C264.423 39.412 264.967 39.2733 265.415 38.996C265.874 38.708 266.22 38.324 266.455 37.844C266.7 37.364 266.823 36.8253 266.823 36.228C266.823 35.62 266.7 35.076 266.455 34.596C266.21 34.116 265.858 33.7373 265.399 33.46C264.951 33.1827 264.412 33.044 263.783 33.044C263.164 33.044 262.626 33.1827 262.167 33.46C261.708 33.7373 261.356 34.116 261.111 34.596C260.866 35.076 260.743 35.62 260.743 36.228C260.743 36.8253 260.86 37.364 261.095 37.844C261.34 38.324 261.687 38.708 262.135 38.996C262.594 39.2733 263.143 39.412 263.783 39.412ZM270.66 40.5V31.956H271.876V35.62H271.684C271.684 34.7773 271.796 34.068 272.02 33.492C272.254 32.9053 272.606 32.4627 273.076 32.164C273.545 31.8547 274.137 31.7 274.852 31.7H274.916C275.993 31.7 276.788 32.036 277.3 32.708C277.822 33.38 278.084 34.3507 278.084 35.62V40.5H276.548V35.3C276.548 34.6387 276.361 34.1107 275.988 33.716C275.614 33.3107 275.102 33.108 274.452 33.108C273.78 33.108 273.236 33.316 272.82 33.732C272.404 34.148 272.196 34.7027 272.196 35.396V40.5H270.66ZM172.432 70.5L178.408 52.98H183.976L190.12 70.5H186.616L181.408 55.308L182.632 55.836H179.632L180.88 55.308L175.84 70.5H172.432ZM176.608 65.844L177.688 62.964H184.792L185.848 65.844H176.608ZM192.459 75.3V57.468H195.099V63.084L194.691 63.06C194.755 61.732 195.027 60.62 195.507 59.724C196.003 58.828 196.659 58.164 197.475 57.732C198.291 57.284 199.203 57.06 200.211 57.06C201.139 57.06 201.971 57.228 202.707 57.564C203.459 57.9 204.099 58.372 204.627 58.98C205.171 59.588 205.587 60.3 205.875 61.116C206.163 61.916 206.307 62.78 206.307 63.708V64.212C206.307 65.156 206.163 66.036 205.875 66.852C205.603 67.652 205.195 68.364 204.651 68.988C204.123 69.596 203.483 70.076 202.731 70.428C201.979 70.764 201.139 70.932 200.211 70.932C199.235 70.932 198.339 70.732 197.523 70.332C196.723 69.916 196.075 69.284 195.579 68.436C195.083 67.572 194.803 66.46 194.739 65.1L195.795 66.708V75.3H192.459ZM199.371 68.124C200.091 68.124 200.715 67.948 201.243 67.596C201.787 67.244 202.211 66.756 202.515 66.132C202.819 65.492 202.971 64.772 202.971 63.972C202.971 63.14 202.819 62.42 202.515 61.812C202.211 61.204 201.787 60.732 201.243 60.396C200.715 60.044 200.091 59.868 199.371 59.868C198.715 59.868 198.107 60.012 197.547 60.3C197.003 60.588 196.555 61.012 196.203 61.572C195.867 62.132 195.699 62.804 195.699 63.588V64.548C195.699 65.3 195.875 65.94 196.227 66.468C196.579 66.996 197.035 67.404 197.595 67.692C198.155 67.98 198.747 68.124 199.371 68.124ZM209.24 75.3V57.468H211.88V63.084L211.472 63.06C211.536 61.732 211.808 60.62 212.288 59.724C212.784 58.828 213.44 58.164 214.256 57.732C215.072 57.284 215.984 57.06 216.992 57.06C217.92 57.06 218.752 57.228 219.488 57.564C220.24 57.9 220.88 58.372 221.408 58.98C221.952 59.588 222.368 60.3 222.656 61.116C222.944 61.916 223.088 62.78 223.088 63.708V64.212C223.088 65.156 222.944 66.036 222.656 66.852C222.384 67.652 221.976 68.364 221.432 68.988C220.904 69.596 220.264 70.076 219.512 70.428C218.76 70.764 217.92 70.932 216.992 70.932C216.016 70.932 215.12 70.732 214.304 70.332C213.504 69.916 212.856 69.284 212.36 68.436C211.864 67.572 211.584 66.46 211.52 65.1L212.576 66.708V75.3H209.24ZM216.152 68.124C216.872 68.124 217.496 67.948 218.024 67.596C218.568 67.244 218.992 66.756 219.296 66.132C219.6 65.492 219.752 64.772 219.752 63.972C219.752 63.14 219.6 62.42 219.296 61.812C218.992 61.204 218.568 60.732 218.024 60.396C217.496 60.044 216.872 59.868 216.152 59.868C215.496 59.868 214.888 60.012 214.328 60.3C213.784 60.588 213.336 61.012 212.984 61.572C212.648 62.132 212.48 62.804 212.48 63.588V64.548C212.48 65.3 212.656 65.94 213.008 66.468C213.36 66.996 213.816 67.404 214.376 67.692C214.936 67.98 215.528 68.124 216.152 68.124ZM237.441 70.956C235.889 70.956 234.577 70.708 233.505 70.212C232.449 69.716 231.641 69.036 231.081 68.172C230.521 67.292 230.241 66.3 230.241 65.196H233.577C233.577 65.66 233.705 66.116 233.961 66.564C234.217 66.996 234.625 67.348 235.185 67.62C235.761 67.892 236.513 68.028 237.441 68.028C238.273 68.028 238.969 67.908 239.529 67.668C240.089 67.428 240.505 67.116 240.777 66.732C241.049 66.332 241.185 65.884 241.185 65.388C241.185 64.764 240.921 64.268 240.393 63.9C239.865 63.516 239.049 63.276 237.945 63.18L236.409 63.06C234.729 62.916 233.385 62.396 232.377 61.5C231.385 60.588 230.889 59.388 230.889 57.9C230.889 56.78 231.153 55.82 231.681 55.02C232.209 54.204 232.945 53.58 233.889 53.148C234.849 52.7 235.969 52.476 237.249 52.476C238.577 52.476 239.721 52.708 240.681 53.172C241.641 53.636 242.385 54.292 242.913 55.14C243.441 55.972 243.705 56.956 243.705 58.092H240.369C240.369 57.612 240.249 57.172 240.009 56.772C239.785 56.356 239.441 56.028 238.977 55.788C238.529 55.532 237.953 55.404 237.249 55.404C236.577 55.404 236.017 55.516 235.569 55.74C235.121 55.964 234.785 56.268 234.561 56.652C234.337 57.036 234.225 57.452 234.225 57.9C234.225 58.444 234.425 58.924 234.825 59.34C235.225 59.74 235.857 59.972 236.721 60.036L238.257 60.18C239.505 60.276 240.601 60.54 241.545 60.972C242.489 61.404 243.217 61.988 243.729 62.724C244.257 63.46 244.521 64.348 244.521 65.388C244.521 66.492 244.233 67.468 243.657 68.316C243.081 69.148 242.257 69.796 241.185 70.26C240.129 70.724 238.881 70.956 237.441 70.956ZM253.037 70.668C251.837 70.668 250.845 70.516 250.061 70.212C249.293 69.892 248.717 69.364 248.333 68.628C247.949 67.876 247.757 66.868 247.757 65.604L247.781 53.796H250.901L250.877 65.82C250.877 66.46 251.045 66.956 251.381 67.308C251.733 67.644 252.229 67.812 252.869 67.812H254.909V70.668H253.037ZM245.693 59.916V57.468H254.909V59.916H245.693ZM263.902 70.956C262.75 70.956 261.734 70.772 260.854 70.404C259.974 70.036 259.23 69.54 258.622 68.916C258.014 68.276 257.55 67.556 257.23 66.756C256.926 65.956 256.774 65.124 256.774 64.26V63.756C256.774 62.86 256.934 62.012 257.254 61.212C257.59 60.396 258.062 59.676 258.67 59.052C259.294 58.412 260.046 57.916 260.926 57.564C261.806 57.196 262.798 57.012 263.902 57.012C265.006 57.012 265.998 57.196 266.878 57.564C267.758 57.916 268.502 58.412 269.11 59.052C269.734 59.676 270.206 60.396 270.526 61.212C270.846 62.012 271.006 62.86 271.006 63.756V64.26C271.006 65.124 270.846 65.956 270.526 66.756C270.222 67.556 269.766 68.276 269.158 68.916C268.55 69.54 267.806 70.036 266.926 70.404C266.046 70.772 265.038 70.956 263.902 70.956ZM263.902 68.1C264.718 68.1 265.406 67.924 265.966 67.572C266.526 67.204 266.95 66.716 267.238 66.108C267.526 65.484 267.67 64.78 267.67 63.996C267.67 63.196 267.518 62.492 267.214 61.884C266.926 61.26 266.494 60.772 265.918 60.42C265.358 60.052 264.686 59.868 263.902 59.868C263.118 59.868 262.438 60.052 261.862 60.42C261.302 60.772 260.87 61.26 260.566 61.884C260.262 62.492 260.11 63.196 260.11 63.996C260.11 64.78 260.254 65.484 260.542 66.108C260.846 66.716 261.278 67.204 261.838 67.572C262.398 67.924 263.086 68.1 263.902 68.1ZM273.927 70.5V57.468H276.567V62.988H276.495C276.495 61.116 276.895 59.7 277.695 58.74C278.495 57.78 279.671 57.3 281.223 57.3H281.703V60.204H280.791C279.671 60.204 278.799 60.508 278.175 61.116C277.567 61.708 277.263 62.572 277.263 63.708V70.5H273.927ZM289.673 70.956C288.553 70.956 287.569 70.764 286.721 70.38C285.889 69.996 285.193 69.484 284.633 68.844C284.089 68.188 283.673 67.46 283.385 66.66C283.113 65.86 282.977 65.044 282.977 64.212V63.756C282.977 62.892 283.113 62.06 283.385 61.26C283.673 60.444 284.089 59.724 284.633 59.1C285.193 58.46 285.881 57.956 286.697 57.588C287.513 57.204 288.457 57.012 289.529 57.012C290.937 57.012 292.113 57.324 293.057 57.948C294.017 58.556 294.737 59.364 295.217 60.372C295.697 61.364 295.937 62.436 295.937 63.588V64.788H284.393V62.748H293.849L292.817 63.756C292.817 62.924 292.697 62.212 292.457 61.62C292.217 61.028 291.849 60.572 291.353 60.252C290.873 59.932 290.265 59.772 289.529 59.772C288.793 59.772 288.169 59.94 287.657 60.276C287.145 60.612 286.753 61.1 286.481 61.74C286.225 62.364 286.097 63.116 286.097 63.996C286.097 64.812 286.225 65.54 286.481 66.18C286.737 66.804 287.129 67.3 287.657 67.668C288.185 68.02 288.857 68.196 289.673 68.196C290.489 68.196 291.153 68.036 291.665 67.716C292.177 67.38 292.505 66.972 292.649 66.492H295.721C295.529 67.388 295.161 68.172 294.617 68.844C294.073 69.516 293.377 70.036 292.529 70.404C291.697 70.772 290.745 70.956 289.673 70.956Z" fill="white"/>
</svg>
