<svg width="382" height="104" viewBox="0 0 382 104" fill="none" xmlns="http://www.w3.org/2000/svg">
<rect width="382" height="104" rx="52" fill="black"/>
<g clip-path="url(#clip0_1425_9197)">
<path d="M102.708 46.1431L86.8561 37.0834C86.657 36.9677 86.4064 36.9741 86.2136 37.0898C86.0144 37.2054 85.8923 37.411 85.8923 37.6424C85.8923 37.6424 85.8988 38.4777 85.9052 39.8527L97.4516 51.3991L102.708 46.1431Z" fill="url(#paint0_linear_1425_9197)"/>
<path d="M85.9053 39.8523C85.9245 44.8127 85.9824 56.8538 86.0081 62.8487L97.4581 51.3987L85.9053 39.8523Z" fill="url(#paint1_linear_1425_9197)"/>
<path d="M111.78 51.3283L102.707 46.1431L97.4451 51.399L103.382 57.336L111.786 52.4399C111.986 52.3243 112.108 52.1122 112.108 51.8873C112.108 51.656 111.979 51.444 111.78 51.3283Z" fill="url(#paint2_linear_1425_9197)"/>
<path d="M86.0017 62.8493C86.0146 64.989 86.021 66.3576 86.021 66.3576C86.021 66.5889 86.1431 66.8009 86.3423 66.9102C86.5414 67.0258 86.7856 67.0258 86.9848 66.9102L103.389 57.3428L97.4517 51.4058L86.0017 62.8493Z" fill="url(#paint3_linear_1425_9197)"/>
</g>
<path d="M153.944 40.564V39.124H156.856C157.56 39.124 158.184 39.012 158.728 38.788C159.283 38.5533 159.752 38.2333 160.136 37.828C160.531 37.4227 160.829 36.948 161.032 36.404C161.235 35.86 161.336 35.2733 161.336 34.644C161.336 33.9827 161.235 33.3853 161.032 32.852C160.829 32.308 160.531 31.8387 160.136 31.444C159.752 31.0387 159.283 30.7293 158.728 30.516C158.184 30.3027 157.56 30.196 156.856 30.196H153.944V28.756H156.696C157.752 28.756 158.669 28.9213 159.448 29.252C160.227 29.572 160.872 30.0093 161.384 30.564C161.907 31.108 162.296 31.7213 162.552 32.404C162.808 33.076 162.936 33.764 162.936 34.468V34.82C162.936 35.5027 162.808 36.1853 162.552 36.868C162.296 37.5507 161.907 38.1693 161.384 38.724C160.872 39.2787 160.227 39.7267 159.448 40.068C158.669 40.3987 157.752 40.564 156.696 40.564H153.944ZM152.696 40.564V28.756H154.264V40.564H152.696ZM169.064 40.788C168.318 40.788 167.662 40.66 167.096 40.404C166.531 40.148 166.051 39.812 165.656 39.396C165.272 38.9693 164.979 38.4947 164.776 37.972C164.584 37.4493 164.488 36.916 164.488 36.372V36.084C164.488 35.54 164.59 35.0067 164.792 34.484C164.995 33.9507 165.294 33.476 165.688 33.06C166.083 32.6333 166.563 32.2973 167.128 32.052C167.694 31.796 168.339 31.668 169.064 31.668C169.79 31.668 170.435 31.796 171 32.052C171.566 32.2973 172.046 32.6333 172.44 33.06C172.835 33.476 173.134 33.9507 173.336 34.484C173.539 35.0067 173.64 35.54 173.64 36.084V36.372C173.64 36.916 173.539 37.4493 173.336 37.972C173.144 38.4947 172.851 38.9693 172.456 39.396C172.072 39.812 171.598 40.148 171.032 40.404C170.467 40.66 169.811 40.788 169.064 40.788ZM169.064 39.412C169.704 39.412 170.248 39.2733 170.696 38.996C171.155 38.708 171.502 38.324 171.736 37.844C171.982 37.364 172.104 36.8253 172.104 36.228C172.104 35.62 171.982 35.076 171.736 34.596C171.491 34.116 171.139 33.7373 170.68 33.46C170.232 33.1827 169.694 33.044 169.064 33.044C168.446 33.044 167.907 33.1827 167.448 33.46C166.99 33.7373 166.638 34.116 166.392 34.596C166.147 35.076 166.024 35.62 166.024 36.228C166.024 36.8253 166.142 37.364 166.376 37.844C166.622 38.324 166.968 38.708 167.416 38.996C167.875 39.2733 168.424 39.412 169.064 39.412ZM178.281 40.5L180.009 32.244H182.089L184.105 40.5H182.793L180.777 32.276H181.289L179.545 40.5H178.281ZM177.497 40.5V39.284H179.273V40.5H177.497ZM177.145 40.5L174.729 31.956H176.201L178.553 40.5H177.145ZM183.113 40.5V39.284H184.889V40.5H183.113ZM183.833 40.5L185.881 31.956H187.273L185.177 40.5H183.833ZM189.347 40.5V31.956H190.563V35.62H190.371C190.371 34.7773 190.483 34.068 190.707 33.492C190.942 32.9053 191.294 32.4627 191.763 32.164C192.232 31.8547 192.824 31.7 193.539 31.7H193.603C194.68 31.7 195.475 32.036 195.987 32.708C196.51 33.38 196.771 34.3507 196.771 35.62V40.5H195.235V35.3C195.235 34.6387 195.048 34.1107 194.675 33.716C194.302 33.3107 193.79 33.108 193.139 33.108C192.467 33.108 191.923 33.316 191.507 33.732C191.091 34.148 190.883 34.7027 190.883 35.396V40.5H189.347ZM199.677 40.5V28.82H201.213V40.5H199.677ZM198.493 30.036V28.82H201.213V30.036H198.493ZM208.096 40.788C207.349 40.788 206.693 40.66 206.128 40.404C205.562 40.148 205.082 39.812 204.688 39.396C204.304 38.9693 204.01 38.4947 203.808 37.972C203.616 37.4493 203.52 36.916 203.52 36.372V36.084C203.52 35.54 203.621 35.0067 203.824 34.484C204.026 33.9507 204.325 33.476 204.72 33.06C205.114 32.6333 205.594 32.2973 206.16 32.052C206.725 31.796 207.37 31.668 208.096 31.668C208.821 31.668 209.466 31.796 210.032 32.052C210.597 32.2973 211.077 32.6333 211.472 33.06C211.866 33.476 212.165 33.9507 212.368 34.484C212.57 35.0067 212.672 35.54 212.672 36.084V36.372C212.672 36.916 212.57 37.4493 212.368 37.972C212.176 38.4947 211.882 38.9693 211.488 39.396C211.104 39.812 210.629 40.148 210.064 40.404C209.498 40.66 208.842 40.788 208.096 40.788ZM208.096 39.412C208.736 39.412 209.28 39.2733 209.728 38.996C210.186 38.708 210.533 38.324 210.767 37.844C211.013 37.364 211.135 36.8253 211.135 36.228C211.135 35.62 211.013 35.076 210.767 34.596C210.522 34.116 210.17 33.7373 209.712 33.46C209.264 33.1827 208.725 33.044 208.096 33.044C207.477 33.044 206.938 33.1827 206.48 33.46C206.021 33.7373 205.669 34.116 205.424 34.596C205.178 35.076 205.056 35.62 205.056 36.228C205.056 36.8253 205.173 37.364 205.408 37.844C205.653 38.324 206 38.708 206.448 38.996C206.906 39.2733 207.456 39.412 208.096 39.412ZM220.14 40.5V37.94H219.884V34.98C219.884 34.3933 219.729 33.9507 219.42 33.652C219.121 33.3533 218.679 33.204 218.092 33.204C217.761 33.204 217.42 33.2093 217.068 33.22C216.716 33.2307 216.38 33.2413 216.06 33.252C215.74 33.2627 215.463 33.2787 215.228 33.3V31.956C215.463 31.9347 215.708 31.9187 215.964 31.908C216.231 31.8867 216.503 31.876 216.78 31.876C217.057 31.8653 217.324 31.86 217.58 31.86C218.455 31.86 219.169 31.9667 219.724 32.18C220.279 32.3827 220.689 32.7187 220.956 33.188C221.223 33.6573 221.356 34.292 221.356 35.092V40.5H220.14ZM217.34 40.724C216.7 40.724 216.145 40.6173 215.676 40.404C215.217 40.18 214.86 39.86 214.604 39.444C214.359 39.028 214.236 38.5267 214.236 37.94C214.236 37.332 214.369 36.8253 214.636 36.42C214.913 36.0147 215.313 35.7107 215.836 35.508C216.359 35.2947 216.988 35.188 217.724 35.188H220.044V36.34H217.66C217.041 36.34 216.567 36.4893 216.236 36.788C215.905 37.0867 215.74 37.4707 215.74 37.94C215.74 38.4093 215.905 38.788 216.236 39.076C216.567 39.364 217.041 39.508 217.66 39.508C218.023 39.508 218.369 39.444 218.7 39.316C219.031 39.1773 219.303 38.9533 219.516 38.644C219.74 38.324 219.863 37.8867 219.884 37.332L220.3 37.94C220.247 38.548 220.097 39.06 219.852 39.476C219.617 39.8813 219.287 40.1907 218.86 40.404C218.444 40.6173 217.937 40.724 217.34 40.724ZM227.743 40.788C227.135 40.788 226.575 40.676 226.063 40.452C225.551 40.228 225.103 39.9133 224.719 39.508C224.346 39.1027 224.052 38.6333 223.839 38.1C223.636 37.5667 223.535 36.9907 223.535 36.372V36.084C223.535 35.476 223.636 34.9053 223.839 34.372C224.042 33.8387 224.324 33.3693 224.687 32.964C225.06 32.5587 225.498 32.244 225.999 32.02C226.511 31.7853 227.076 31.668 227.695 31.668C228.346 31.668 228.938 31.8067 229.471 32.084C230.004 32.3507 230.442 32.772 230.783 33.348C231.124 33.924 231.316 34.6707 231.359 35.588L230.719 34.564V28.82H232.255V40.5H231.039V36.708H231.487C231.444 37.6787 231.242 38.468 230.879 39.076C230.516 39.6733 230.058 40.1107 229.503 40.388C228.959 40.6547 228.372 40.788 227.743 40.788ZM227.951 39.444C228.474 39.444 228.948 39.3267 229.375 39.092C229.802 38.8573 230.143 38.5213 230.399 38.084C230.655 37.636 230.783 37.1133 230.783 36.516V35.78C230.783 35.1933 230.65 34.6973 230.383 34.292C230.127 33.876 229.78 33.5613 229.343 33.348C228.916 33.124 228.447 33.012 227.935 33.012C227.37 33.012 226.868 33.1453 226.431 33.412C226.004 33.6787 225.668 34.052 225.423 34.532C225.188 35.012 225.071 35.5773 225.071 36.228C225.071 36.8787 225.194 37.4493 225.439 37.94C225.684 38.42 226.026 38.7933 226.463 39.06C226.9 39.316 227.396 39.444 227.951 39.444ZM242.783 40.788C242.036 40.788 241.38 40.66 240.815 40.404C240.25 40.148 239.77 39.812 239.375 39.396C238.991 38.9693 238.698 38.4947 238.495 37.972C238.303 37.4493 238.207 36.916 238.207 36.372V36.084C238.207 35.54 238.308 35.0067 238.511 34.484C238.714 33.9507 239.012 33.476 239.407 33.06C239.802 32.6333 240.282 32.2973 240.847 32.052C241.412 31.796 242.058 31.668 242.783 31.668C243.508 31.668 244.154 31.796 244.719 32.052C245.284 32.2973 245.764 32.6333 246.159 33.06C246.554 33.476 246.852 33.9507 247.055 34.484C247.258 35.0067 247.359 35.54 247.359 36.084V36.372C247.359 36.916 247.258 37.4493 247.055 37.972C246.863 38.4947 246.57 38.9693 246.175 39.396C245.791 39.812 245.316 40.148 244.751 40.404C244.186 40.66 243.53 40.788 242.783 40.788ZM242.783 39.412C243.423 39.412 243.967 39.2733 244.415 38.996C244.874 38.708 245.22 38.324 245.455 37.844C245.7 37.364 245.823 36.8253 245.823 36.228C245.823 35.62 245.7 35.076 245.455 34.596C245.21 34.116 244.858 33.7373 244.399 33.46C243.951 33.1827 243.412 33.044 242.783 33.044C242.164 33.044 241.626 33.1827 241.167 33.46C240.708 33.7373 240.356 34.116 240.111 34.596C239.866 35.076 239.743 35.62 239.743 36.228C239.743 36.8253 239.86 37.364 240.095 37.844C240.34 38.324 240.687 38.708 241.135 38.996C241.594 39.2733 242.143 39.412 242.783 39.412ZM249.66 40.5V31.956H250.876V35.62H250.684C250.684 34.7773 250.796 34.068 251.02 33.492C251.254 32.9053 251.606 32.4627 252.076 32.164C252.545 31.8547 253.137 31.7 253.852 31.7H253.916C254.993 31.7 255.788 32.036 256.3 32.708C256.822 33.38 257.084 34.3507 257.084 35.62V40.5H255.548V35.3C255.548 34.6387 255.361 34.1107 254.988 33.716C254.614 33.3107 254.102 33.108 253.452 33.108C252.78 33.108 252.236 33.316 251.82 33.732C251.404 34.148 251.196 34.7027 251.196 35.396V40.5H249.66ZM161.32 70.956C159.816 70.956 158.488 70.708 157.336 70.212C156.2 69.7 155.24 69.02 154.456 68.172C153.688 67.308 153.104 66.34 152.704 65.268C152.32 64.18 152.128 63.052 152.128 61.884V61.356C152.128 60.252 152.32 59.172 152.704 58.116C153.088 57.06 153.648 56.108 154.384 55.26C155.136 54.412 156.056 53.74 157.144 53.244C158.248 52.732 159.512 52.476 160.936 52.476C162.472 52.476 163.832 52.764 165.016 53.34C166.2 53.9 167.152 54.692 167.872 55.716C168.592 56.724 169.016 57.9 169.144 59.244H165.712C165.6 58.492 165.32 57.852 164.872 57.324C164.424 56.78 163.856 56.364 163.168 56.076C162.496 55.788 161.752 55.644 160.936 55.644C160.12 55.644 159.376 55.788 158.704 56.076C158.048 56.364 157.488 56.772 157.024 57.3C156.56 57.828 156.2 58.46 155.944 59.196C155.704 59.932 155.584 60.748 155.584 61.644C155.584 62.62 155.72 63.492 155.992 64.26C156.264 65.028 156.648 65.684 157.144 66.228C157.64 66.756 158.24 67.164 158.944 67.452C159.648 67.724 160.44 67.86 161.32 67.86C162.488 67.86 163.512 67.62 164.392 67.14C165.272 66.644 165.912 66.004 166.312 65.22L165.712 67.98V63.468H168.856V67.356C168.104 68.492 167.08 69.38 165.784 70.02C164.488 70.644 163 70.956 161.32 70.956ZM160.768 64.14V61.596H170.32V64.14H160.768ZM179.129 70.956C177.977 70.956 176.961 70.772 176.081 70.404C175.201 70.036 174.457 69.54 173.849 68.916C173.241 68.276 172.777 67.556 172.457 66.756C172.153 65.956 172.001 65.124 172.001 64.26V63.756C172.001 62.86 172.161 62.012 172.481 61.212C172.817 60.396 173.289 59.676 173.897 59.052C174.521 58.412 175.273 57.916 176.153 57.564C177.033 57.196 178.025 57.012 179.129 57.012C180.233 57.012 181.225 57.196 182.105 57.564C182.985 57.916 183.729 58.412 184.337 59.052C184.961 59.676 185.433 60.396 185.753 61.212C186.073 62.012 186.233 62.86 186.233 63.756V64.26C186.233 65.124 186.073 65.956 185.753 66.756C185.449 67.556 184.993 68.276 184.385 68.916C183.777 69.54 183.033 70.036 182.153 70.404C181.273 70.772 180.265 70.956 179.129 70.956ZM179.129 68.1C179.945 68.1 180.633 67.924 181.193 67.572C181.753 67.204 182.177 66.716 182.465 66.108C182.753 65.484 182.897 64.78 182.897 63.996C182.897 63.196 182.745 62.492 182.441 61.884C182.153 61.26 181.721 60.772 181.145 60.42C180.585 60.052 179.913 59.868 179.129 59.868C178.345 59.868 177.665 60.052 177.089 60.42C176.529 60.772 176.097 61.26 175.793 61.884C175.489 62.492 175.337 63.196 175.337 63.996C175.337 64.78 175.481 65.484 175.769 66.108C176.073 66.716 176.505 67.204 177.065 67.572C177.625 67.924 178.313 68.1 179.129 68.1ZM195.418 70.956C194.266 70.956 193.25 70.772 192.37 70.404C191.49 70.036 190.746 69.54 190.138 68.916C189.53 68.276 189.066 67.556 188.746 66.756C188.442 65.956 188.29 65.124 188.29 64.26V63.756C188.29 62.86 188.45 62.012 188.77 61.212C189.106 60.396 189.578 59.676 190.186 59.052C190.81 58.412 191.562 57.916 192.442 57.564C193.322 57.196 194.314 57.012 195.418 57.012C196.522 57.012 197.514 57.196 198.394 57.564C199.274 57.916 200.018 58.412 200.626 59.052C201.25 59.676 201.722 60.396 202.042 61.212C202.362 62.012 202.522 62.86 202.522 63.756V64.26C202.522 65.124 202.362 65.956 202.042 66.756C201.738 67.556 201.282 68.276 200.674 68.916C200.066 69.54 199.322 70.036 198.442 70.404C197.562 70.772 196.554 70.956 195.418 70.956ZM195.418 68.1C196.234 68.1 196.922 67.924 197.482 67.572C198.042 67.204 198.466 66.716 198.754 66.108C199.042 65.484 199.186 64.78 199.186 63.996C199.186 63.196 199.034 62.492 198.73 61.884C198.442 61.26 198.01 60.772 197.434 60.42C196.874 60.052 196.202 59.868 195.418 59.868C194.634 59.868 193.954 60.052 193.378 60.42C192.818 60.772 192.386 61.26 192.082 61.884C191.778 62.492 191.626 63.196 191.626 63.996C191.626 64.78 191.77 65.484 192.058 66.108C192.362 66.716 192.794 67.204 193.354 67.572C193.914 67.924 194.602 68.1 195.418 68.1ZM210.531 75.636C209.907 75.636 209.267 75.612 208.611 75.564C207.971 75.516 207.371 75.452 206.811 75.372V72.588C207.387 72.652 208.003 72.708 208.659 72.756C209.315 72.82 209.931 72.852 210.507 72.852C211.579 72.852 212.443 72.724 213.099 72.468C213.771 72.212 214.259 71.804 214.563 71.244C214.883 70.7 215.043 70.004 215.043 69.156V66.588L215.763 64.956C215.715 66.156 215.467 67.18 215.019 68.028C214.571 68.86 213.963 69.5 213.195 69.948C212.427 70.38 211.539 70.596 210.531 70.596C209.635 70.596 208.819 70.428 208.083 70.092C207.363 69.756 206.739 69.292 206.211 68.7C205.699 68.108 205.299 67.412 205.011 66.612C204.723 65.812 204.579 64.956 204.579 64.044V63.54C204.579 62.628 204.723 61.78 205.011 60.996C205.315 60.196 205.739 59.5 206.283 58.908C206.827 58.316 207.475 57.86 208.227 57.54C208.979 57.22 209.811 57.06 210.723 57.06C211.795 57.06 212.723 57.292 213.507 57.756C214.307 58.22 214.931 58.892 215.379 59.772C215.827 60.652 216.075 61.732 216.123 63.012L215.547 63.108V57.468H218.187V68.964C218.187 70.548 217.915 71.828 217.371 72.804C216.827 73.78 215.987 74.492 214.851 74.94C213.731 75.404 212.291 75.636 210.531 75.636ZM211.491 67.74C212.131 67.74 212.715 67.596 213.243 67.308C213.771 67.02 214.195 66.604 214.515 66.06C214.835 65.516 214.995 64.86 214.995 64.092V63.252C214.995 62.516 214.827 61.892 214.491 61.38C214.171 60.868 213.747 60.484 213.219 60.228C212.691 59.956 212.115 59.82 211.491 59.82C210.787 59.82 210.163 59.988 209.619 60.324C209.091 60.644 208.675 61.1 208.371 61.692C208.067 62.284 207.915 62.988 207.915 63.804C207.915 64.604 208.067 65.3 208.371 65.892C208.675 66.484 209.091 66.94 209.619 67.26C210.163 67.58 210.787 67.74 211.491 67.74ZM221.994 70.5V52.98H225.33V70.5H221.994ZM220.362 55.476V52.98H225.33V55.476H220.362ZM234.97 70.956C233.85 70.956 232.866 70.764 232.018 70.38C231.186 69.996 230.49 69.484 229.93 68.844C229.386 68.188 228.97 67.46 228.682 66.66C228.41 65.86 228.274 65.044 228.274 64.212V63.756C228.274 62.892 228.41 62.06 228.682 61.26C228.97 60.444 229.386 59.724 229.93 59.1C230.49 58.46 231.178 57.956 231.994 57.588C232.81 57.204 233.754 57.012 234.826 57.012C236.234 57.012 237.41 57.324 238.354 57.948C239.314 58.556 240.034 59.364 240.514 60.372C240.994 61.364 241.234 62.436 241.234 63.588V64.788H229.69V62.748H239.146L238.114 63.756C238.114 62.924 237.994 62.212 237.754 61.62C237.514 61.028 237.146 60.572 236.65 60.252C236.17 59.932 235.562 59.772 234.826 59.772C234.09 59.772 233.466 59.94 232.954 60.276C232.442 60.612 232.05 61.1 231.778 61.74C231.522 62.364 231.394 63.116 231.394 63.996C231.394 64.812 231.522 65.54 231.778 66.18C232.034 66.804 232.426 67.3 232.954 67.668C233.482 68.02 234.154 68.196 234.97 68.196C235.786 68.196 236.45 68.036 236.962 67.716C237.474 67.38 237.802 66.972 237.946 66.492H241.018C240.826 67.388 240.458 68.172 239.914 68.844C239.37 69.516 238.674 70.036 237.826 70.404C236.994 70.772 236.042 70.956 234.97 70.956ZM252.393 65.124V62.172H255.801C256.489 62.172 257.065 62.036 257.529 61.764C258.009 61.492 258.369 61.116 258.609 60.636C258.865 60.156 258.993 59.604 258.993 58.98C258.993 58.356 258.865 57.804 258.609 57.324C258.369 56.844 258.009 56.476 257.529 56.22C257.065 55.948 256.489 55.812 255.801 55.812H252.393V52.86H255.513C256.985 52.86 258.233 53.1 259.257 53.58C260.297 54.06 261.089 54.748 261.633 55.644C262.177 56.524 262.449 57.572 262.449 58.788V59.172C262.449 60.388 262.177 61.444 261.633 62.34C261.089 63.22 260.297 63.908 259.257 64.404C258.233 64.884 256.985 65.124 255.513 65.124H252.393ZM249.465 70.5V52.86H252.873V70.5H249.465ZM265.166 70.5V52.98H268.502V70.5H265.166ZM263.534 55.476V52.98H268.502V55.476H263.534ZM280.206 70.5V66.636H279.654V62.34C279.654 61.588 279.47 61.028 279.102 60.66C278.734 60.292 278.166 60.108 277.398 60.108C276.998 60.108 276.518 60.116 275.958 60.132C275.398 60.148 274.83 60.172 274.254 60.204C273.694 60.22 273.19 60.244 272.742 60.276V57.444C273.11 57.412 273.526 57.38 273.99 57.348C274.454 57.316 274.926 57.3 275.406 57.3C275.902 57.284 276.366 57.276 276.798 57.276C278.142 57.276 279.254 57.452 280.134 57.804C281.03 58.156 281.702 58.708 282.15 59.46C282.614 60.212 282.846 61.196 282.846 62.412V70.5H280.206ZM276.006 70.836C275.062 70.836 274.23 70.668 273.51 70.332C272.806 69.996 272.254 69.516 271.854 68.892C271.47 68.268 271.278 67.516 271.278 66.636C271.278 65.676 271.51 64.892 271.974 64.284C272.454 63.676 273.118 63.22 273.966 62.916C274.83 62.612 275.838 62.46 276.99 62.46H280.014V64.452H276.942C276.174 64.452 275.582 64.644 275.166 65.028C274.766 65.396 274.566 65.876 274.566 66.468C274.566 67.06 274.766 67.54 275.166 67.908C275.582 68.276 276.174 68.46 276.942 68.46C277.406 68.46 277.83 68.38 278.214 68.22C278.614 68.044 278.942 67.756 279.198 67.356C279.47 66.94 279.622 66.38 279.654 65.676L280.47 66.612C280.39 67.524 280.166 68.292 279.798 68.916C279.446 69.54 278.95 70.02 278.31 70.356C277.686 70.676 276.918 70.836 276.006 70.836ZM285.871 75.636V72.78H288.319C288.783 72.78 289.167 72.716 289.471 72.588C289.791 72.476 290.055 72.284 290.263 72.012C290.471 71.756 290.631 71.396 290.743 70.932L294.247 57.468H297.439L293.575 71.652C293.319 72.628 292.959 73.404 292.495 73.98C292.031 74.572 291.431 74.996 290.695 75.252C289.975 75.508 289.079 75.636 288.007 75.636H285.871ZM289.927 70.212V67.572H292.711V70.212H289.927ZM288.799 70.212L284.575 57.468H287.935L291.943 70.212H288.799Z" fill="white"/>
<defs>
<linearGradient id="paint0_linear_1425_9197" x1="85.8923" y1="44.2023" x2="102.71" y2="44.2023" gradientUnits="userSpaceOnUse">
<stop stop-color="#63BE6B"/>
<stop offset="0.506" stop-color="#5BBC6A"/>
<stop offset="1" stop-color="#4AB96A"/>
</linearGradient>
<linearGradient id="paint1_linear_1425_9197" x1="85.9022" y1="51.3532" x2="97.4514" y2="51.3532" gradientUnits="userSpaceOnUse">
<stop stop-color="#3EC6F2"/>
<stop offset="1" stop-color="#45AFE3"/>
</linearGradient>
<linearGradient id="paint2_linear_1425_9197" x1="97.4512" y1="51.7437" x2="112.106" y2="51.7437" gradientUnits="userSpaceOnUse">
<stop stop-color="#FAA51A"/>
<stop offset="0.387" stop-color="#FAB716"/>
<stop offset="0.741" stop-color="#FAC412"/>
<stop offset="1" stop-color="#FAC80F"/>
</linearGradient>
<linearGradient id="paint3_linear_1425_9197" x1="86.0045" y1="59.2011" x2="103.388" y2="59.2011" gradientUnits="userSpaceOnUse">
<stop stop-color="#EC3B50"/>
<stop offset="1" stop-color="#E7515B"/>
</linearGradient>
<clipPath id="clip0_1425_9197">
<rect width="30" height="30" fill="white" transform="translate(84 37)"/>
</clipPath>
</defs>
</svg>
