<svg width="30" height="30" viewBox="0 0 30 30" fill="none" xmlns="http://www.w3.org/2000/svg">
<path d="M15 2.55078C8.125 2.55078 2.5 8.16328 2.5 15.0758C2.5 21.3258 7.075 26.5133 13.05 27.4508V18.7008H9.875V15.0758H13.05V12.3133C13.05 9.17578 14.9125 7.45078 17.775 7.45078C19.1375 7.45078 20.5625 7.68828 20.5625 7.68828V10.7758H18.9875C17.4375 10.7758 16.95 11.7383 16.95 12.7258V15.0758H20.425L19.8625 18.7008H16.95V27.4508C19.8955 26.9856 22.5778 25.4827 24.5124 23.2133C26.447 20.9441 27.5068 18.0578 27.5 15.0758C27.5 8.16328 21.875 2.55078 15 2.55078Z" fill="#6828B0"/>
</svg>
