<svg width="24" height="24" viewBox="0 0 24 24" fill="none" xmlns="http://www.w3.org/2000/svg">
<path d="M0 3.0272V20.9733C0 22.6672 1.33301 24.0002 3.02695 24.0002H20.973C21.8021 24.0002 22.5943 23.6036 23.0994 23.0997C23.6402 22.5588 24 21.8739 24 20.9733V3.0272C24 1.33326 22.667 0.000244141 20.973 0.000244141H3.02695C2.12636 0.000244141 1.44141 0.361173 0.900591 0.900835C0.395522 1.4059 0 2.1981 0 3.0272ZM3.24374 5.40494C3.24374 4.25182 4.18123 3.24283 5.33436 3.24283C6.52323 3.24283 7.49647 4.25182 7.49647 5.40494C7.49647 6.59382 6.52323 7.53131 5.33436 7.53131C4.18123 7.53131 3.24374 6.59382 3.24374 5.40494ZM9.04512 20.2157V9.22525C9.04512 8.97271 9.29765 8.75708 9.47754 8.75708H12.5402C12.9727 8.75708 12.9727 9.26215 12.9727 9.58618C13.8375 8.72133 14.9549 8.50455 16.108 8.50455C18.9193 8.50455 20.7205 9.83756 20.7205 12.793V20.2168C20.7205 20.4694 20.5037 20.685 20.2881 20.685H17.117C16.8645 20.685 16.6846 20.4325 16.6846 20.2168V13.5137C16.6846 12.3963 16.3605 11.784 15.099 11.784C13.5135 11.784 13.1168 12.8288 13.1168 14.2344V20.2168C13.1168 20.4694 12.8643 20.685 12.6117 20.685H9.47639C9.2965 20.685 9.04396 20.4325 9.04396 20.2168L9.04512 20.2157ZM3.31524 20.2157V9.22525C3.31524 8.97271 3.56777 8.75708 3.74766 8.75708H6.88301C7.17129 8.75708 7.35118 8.93697 7.35118 9.22525V20.2157C7.35118 20.4682 7.13439 20.6839 6.88301 20.6839H3.74766C3.53087 20.6839 3.31524 20.4313 3.31524 20.2157Z" fill="#6828B0"/>
</svg>
