<svg width="30" height="30" viewBox="0 0 30 30" fill="none" xmlns="http://www.w3.org/2000/svg">
<path d="M14.1948 0.962005C15.5596 0.941162 16.9144 0.952001 18.2684 0.941162C18.3134 2.63445 19.0004 4.1585 20.0934 5.28736L20.0917 5.28569C21.2681 6.34535 22.7988 7.03234 24.4863 7.14906L24.5096 7.15073V11.3494C22.9156 11.3093 21.4165 10.9417 20.0651 10.3097L20.1334 10.338C19.4798 10.0237 18.927 9.70108 18.4018 9.34092L18.4451 9.36926C18.4351 12.4115 18.4551 15.4538 18.4243 18.4852C18.3384 20.0301 17.8248 21.4391 17.0011 22.6154L17.0178 22.5896C15.6405 24.5622 13.4095 25.857 10.8724 25.9337H10.8608C10.7582 25.9387 10.6373 25.9412 10.5156 25.9412C9.07326 25.9412 7.72513 25.5393 6.57626 24.8415L6.60961 24.8607C4.51864 23.6026 3.0763 21.4499 2.80951 18.9462L2.80617 18.912C2.78533 18.391 2.77532 17.8699 2.79617 17.3597C3.20469 13.3753 6.54291 10.293 10.6006 10.293C11.0567 10.293 11.5036 10.3322 11.9379 10.4064L11.8912 10.3997C11.9121 11.9413 11.8496 13.4837 11.8496 15.0252C11.4969 14.8977 11.09 14.8235 10.6657 14.8235C9.10828 14.8235 7.78349 15.8189 7.29327 17.2088L7.28576 17.2338C7.17488 17.5898 7.11068 17.9991 7.11068 18.4227C7.11068 18.5944 7.12152 18.7645 7.14153 18.9312L7.13986 18.9112C7.41666 20.617 8.879 21.9043 10.6423 21.9043C10.6932 21.9043 10.7432 21.9034 10.7932 21.9009H10.7857C12.0055 21.8643 13.0643 21.2081 13.6629 20.2385L13.6712 20.2235C13.8938 19.9133 14.0464 19.5382 14.0973 19.1305L14.0981 19.1188C14.2023 17.2538 14.1606 15.3996 14.1706 13.5345C14.1806 9.33591 14.1606 5.14729 14.1915 0.959504L14.1948 0.962005Z" fill="#6828B0"/>
</svg>
