<svg width="40" height="40" viewBox="0 0 40 40" fill="none" xmlns="http://www.w3.org/2000/svg">
<rect width="40" height="40" rx="20" fill="#6828B0"/>
<path opacity="0.6" d="M19.679 19.3917C19.5957 19.3833 19.4957 19.3833 19.404 19.3917C17.4207 19.325 15.8457 17.7 15.8457 15.7C15.8457 13.6583 17.4957 12 19.5457 12C21.5873 12 23.2457 13.6583 23.2457 15.7C23.2373 17.7 21.6623 19.325 19.679 19.3917Z" fill="white"/>
<path d="M15.5125 22.4666C13.4958 23.8166 13.4958 26.0166 15.5125 27.3583C17.8042 28.8916 21.5625 28.8916 23.8542 27.3583C25.8708 26.0083 25.8708 23.8083 23.8542 22.4666C21.5708 20.9416 17.8125 20.9416 15.5125 22.4666Z" fill="white"/>
</svg>
